<svg width="60" height="20" viewBox="0 0 60 20" fill="none" xmlns="http://www.w3.org/2000/svg">
<path d="M3.74869 13.5677C3.50996 13.7065 3.42895 14.0126 3.56775 14.2513C3.70654 14.49 4.01258 14.571 4.25131 14.4323L3.74869 13.5677ZM57.1157 14.4864C57.3844 14.4225 57.5503 14.1529 57.4864 13.8843L56.4448 9.50648C56.3809 9.23784 56.1113 9.07188 55.8426 9.1358C55.574 9.19972 55.408 9.46931 55.4719 9.73795L56.3978 13.6293L52.5065 14.5552C52.2378 14.6191 52.0719 14.8887 52.1358 15.1574C52.1997 15.426 52.4693 15.592 52.738 15.5281L57.1157 14.4864ZM4.25131 14.4323C13.2576 9.19605 36.366 1.88502 56.7379 14.4258L57.2621 13.5742C36.4454 0.759633 12.9138 8.23922 3.74869 13.5677L4.25131 14.4323Z" fill="#FFFAFA"/>
</svg>
