<svg width="60" height="20" viewBox="0 0 60 20" fill="none" xmlns="http://www.w3.org/2000/svg">
<path d="M3.28937 4.59225C3.06418 4.43243 2.75206 4.48543 2.59225 4.71063C2.43243 4.93582 2.48543 5.24794 2.71063 5.40775L3.28937 4.59225ZM57 5.00562C57.0031 4.72949 56.7817 4.50313 56.5056 4.50003L52.0059 4.44947C51.7298 4.44637 51.5034 4.6677 51.5003 4.94382C51.4972 5.21995 51.7185 5.44631 51.9947 5.44941L55.9944 5.49435L55.9495 9.4941C55.9464 9.77022 56.1677 9.99658 56.4438 9.99968C56.7199 10.0028 56.9463 9.78146 56.9494 9.50533L57 5.00562ZM2.71063 5.40775C7.92977 9.11166 16.8804 13.5499 26.8103 14.8458C36.7552 16.1437 47.7138 14.2903 56.8496 5.3575L56.1504 4.6425C47.2862 13.3097 36.6615 15.123 26.9397 13.8542C17.2029 12.5835 8.40356 8.22167 3.28937 4.59225L2.71063 5.40775Z" fill="#FFFAFA"/>
</svg>
