<svg width="50" height="50" viewBox="0 0 50 50" fill="none" xmlns="http://www.w3.org/2000/svg">
<g clip-path="url(#clip0_13_39)">
<path d="M50 9.85714V33.8571C50 37.6286 47.1875 40.7143 43.75 40.7143H31.25V48.8821C31.25 49.727 30.267 50.1912 29.6146 49.6543L18.75 40.7143H6.25C2.80938 40.7143 0 37.6286 0 33.8571V9.85714C0 6.08571 2.80938 3 6.25 3H43.75C47.1875 3 50 6.08571 50 9.85714Z" fill="url(#paint0_linear_13_39)"/>
<path d="M8 24C23.6011 30.6043 31.2208 30.7288 43 24" stroke="url(#paint1_linear_13_39)" stroke-width="5" stroke-linecap="round"/>
<rect x="32" width="8" height="8" rx="4" fill="url(#paint2_linear_13_39)"/>
<path d="M11.5 4C11.5 1.79086 13.2909 0 15.5 0V0C17.7091 0 19.5 1.79086 19.5 4V4C19.5 6.20914 17.7091 8 15.5 8V8C13.2909 8 11.5 6.20914 11.5 4V4Z" fill="url(#paint3_linear_13_39)"/>
</g>
<defs>
<linearGradient id="paint0_linear_13_39" x1="24.5" y1="2.45455" x2="24.5" y2="50.4545" gradientUnits="userSpaceOnUse">
<stop stop-color="#FFD1BC"/>
<stop offset="1" stop-color="#FF5303"/>
</linearGradient>
<linearGradient id="paint1_linear_13_39" x1="25.5" y1="24" x2="25.5" y2="29" gradientUnits="userSpaceOnUse">
<stop stop-color="#6B788D"/>
<stop offset="1" stop-color="#2F80FA"/>
</linearGradient>
<linearGradient id="paint2_linear_13_39" x1="36" y1="0" x2="36" y2="8" gradientUnits="userSpaceOnUse">
<stop stop-color="#6B788D"/>
<stop offset="1" stop-color="#2F80FA"/>
</linearGradient>
<linearGradient id="paint3_linear_13_39" x1="14" y1="3" x2="14" y2="11" gradientUnits="userSpaceOnUse">
<stop stop-color="#6B788D"/>
<stop offset="1" stop-color="#2F80FA"/>
</linearGradient>
<clipPath id="clip0_13_39">
<rect width="50" height="50" fill="white"/>
</clipPath>
</defs>
</svg>
