<svg width="188" height="50" viewBox="0 0 188 50" fill="none" xmlns="http://www.w3.org/2000/svg">
<g clip-path="url(#clip0_13_32)">
<g clip-path="url(#clip1_13_32)">
<path d="M50 9.85714V33.8571C50 37.6286 47.1875 40.7143 43.75 40.7143H31.25V48.8821C31.25 49.727 30.267 50.1912 29.6146 49.6543L18.75 40.7143H6.25C2.80938 40.7143 0 37.6286 0 33.8571V9.85714C0 6.08571 2.80938 3 6.25 3H43.75C47.1875 3 50 6.08571 50 9.85714Z" fill="url(#paint0_linear_13_32)"/>
<path d="M8 24C23.6011 30.6043 31.2208 30.7288 43 24" stroke="url(#paint1_linear_13_32)" stroke-width="5" stroke-linecap="round"/>
<rect x="32" width="8" height="8" rx="4" fill="url(#paint2_linear_13_32)"/>
<path d="M11.5 4C11.5 1.79086 13.2909 0 15.5 0C17.7091 0 19.5 1.79086 19.5 4C19.5 6.20914 17.7091 8 15.5 8C13.2909 8 11.5 6.20914 11.5 4Z" fill="url(#paint3_linear_13_32)"/>
</g>
<path d="M59.958 34V10.2H70.736C72.2773 10.2 73.66 10.5287 74.884 11.186C76.108 11.8433 77.0713 12.75 77.774 13.906C78.4993 15.0393 78.862 16.3427 78.862 17.816C78.862 19.312 78.4993 20.6493 77.774 21.828C77.0713 23.0067 76.108 23.9473 74.884 24.65C73.66 25.33 72.2773 25.67 70.736 25.67H65.5V34H59.958ZM73.184 34L67.132 23.222L73.082 22.372L79.814 34.034L73.184 34ZM65.5 21.148H70.226C70.8153 21.148 71.3253 21.0233 71.756 20.774C72.2093 20.502 72.5493 20.1393 72.776 19.686C73.0253 19.2327 73.15 18.7113 73.15 18.122C73.15 17.51 73.0027 16.9773 72.708 16.524C72.436 16.0707 72.0393 15.7193 71.518 15.47C71.0193 15.198 70.4187 15.062 69.716 15.062H65.5V21.148ZM91.2914 34V22.916C91.2914 21.9867 91.0307 21.3067 90.5094 20.876C90.0107 20.4227 89.3081 20.196 88.4014 20.196C87.5174 20.196 86.7241 20.366 86.0214 20.706C85.3414 21.0233 84.6841 21.556 84.0494 22.304L80.7854 19.142C81.8734 18.0313 83.1201 17.1587 84.5254 16.524C85.9307 15.8893 87.4607 15.572 89.1154 15.572C90.6341 15.572 91.9487 15.7987 93.0594 16.252C94.1701 16.7053 95.0314 17.3967 95.6434 18.326C96.2554 19.2553 96.5614 20.434 96.5614 21.862V34H91.2914ZM86.5994 34.34C85.4661 34.34 84.4347 34.1133 83.5054 33.66C82.5987 33.2067 81.8734 32.5833 81.3294 31.79C80.8081 30.974 80.5474 30.022 80.5474 28.934C80.5474 28.0047 80.7174 27.1887 81.0574 26.486C81.3974 25.7833 81.8961 25.2053 82.5534 24.752C83.2334 24.276 84.0721 23.9247 85.0694 23.698C86.0894 23.4487 87.2681 23.324 88.6054 23.324H94.0794L93.7734 26.758H88.7414C88.2654 26.758 87.8461 26.8033 87.4834 26.894C87.1207 26.962 86.8147 27.0867 86.5654 27.268C86.3161 27.4267 86.1234 27.6193 85.9874 27.846C85.8741 28.0727 85.8174 28.3447 85.8174 28.662C85.8174 29.002 85.9081 29.2967 86.0894 29.546C86.2707 29.7953 86.5087 29.988 86.8034 30.124C87.1207 30.26 87.4834 30.328 87.8914 30.328C88.4807 30.328 89.0361 30.2373 89.5574 30.056C90.1014 29.852 90.5774 29.5687 90.9854 29.206C91.4161 28.8433 91.7561 28.424 92.0054 27.948L92.9574 30.396C92.4814 31.1667 91.9034 31.8467 91.2234 32.436C90.5661 33.0253 89.8407 33.49 89.0474 33.83C88.2767 34.17 87.4607 34.34 86.5994 34.34ZM105.085 34L97.5368 15.946H103.555L108.043 29.308L106.717 29.478L111.341 15.946H117.325L109.369 34H105.085ZM127.245 34.34C125.25 34.34 123.505 33.9433 122.009 33.15C120.536 32.3567 119.391 31.2687 118.575 29.886C117.782 28.4807 117.385 26.8827 117.385 25.092C117.385 23.6867 117.612 22.406 118.065 21.25C118.518 20.0713 119.153 19.0627 119.969 18.224C120.808 17.3853 121.782 16.7393 122.893 16.286C124.026 15.81 125.262 15.572 126.599 15.572C127.868 15.572 129.024 15.7987 130.067 16.252C131.11 16.7053 132.016 17.34 132.787 18.156C133.558 18.972 134.147 19.9353 134.555 21.046C134.963 22.1567 135.156 23.3693 135.133 24.684L135.099 26.18H120.751L119.935 23.086H130.645L130.067 23.698V23.018C130.022 22.4513 129.84 21.964 129.523 21.556C129.228 21.1253 128.832 20.7853 128.333 20.536C127.857 20.2867 127.313 20.162 126.701 20.162C125.794 20.162 125.024 20.3433 124.389 20.706C123.777 21.046 123.312 21.5447 122.995 22.202C122.678 22.8593 122.519 23.6753 122.519 24.65C122.519 25.6247 122.723 26.486 123.131 27.234C123.562 27.982 124.174 28.56 124.967 28.968C125.783 29.376 126.746 29.58 127.857 29.58C128.605 29.58 129.285 29.4667 129.897 29.24C130.509 29.0133 131.166 28.628 131.869 28.084L134.419 31.688C133.716 32.2773 132.968 32.776 132.175 33.184C131.382 33.5693 130.566 33.8527 129.727 34.034C128.911 34.238 128.084 34.34 127.245 34.34ZM152.912 34V10.2H158.726V34H152.912ZM138.122 34V10.2H143.936V34H138.122ZM140.434 24.752V19.516H155.972V24.752H140.434ZM181.549 37.774L172.437 25.466L176.721 22.474L185.697 34.68L181.549 37.774ZM174.477 34.34C172.687 34.34 171.032 34.034 169.513 33.422C168.017 32.81 166.714 31.96 165.603 30.872C164.515 29.7613 163.665 28.458 163.053 26.962C162.441 25.4433 162.135 23.7887 162.135 21.998C162.135 20.23 162.441 18.598 163.053 17.102C163.665 15.5833 164.515 14.2687 165.603 13.158C166.714 12.0473 168.017 11.186 169.513 10.574C171.032 9.962 172.687 9.656 174.477 9.656C176.245 9.656 177.877 9.962 179.373 10.574C180.869 11.186 182.161 12.0473 183.249 13.158C184.36 14.2687 185.221 15.5833 185.833 17.102C186.445 18.598 186.751 20.2413 186.751 22.032C186.751 23.8 186.445 25.432 185.833 26.928C185.221 28.424 184.36 29.7273 183.249 30.838C182.161 31.9487 180.869 32.81 179.373 33.422C177.877 34.034 176.245 34.34 174.477 34.34ZM174.477 28.866C175.407 28.866 176.257 28.696 177.027 28.356C177.798 28.016 178.467 27.54 179.033 26.928C179.623 26.316 180.076 25.5907 180.393 24.752C180.711 23.9133 180.869 23.0067 180.869 22.032C180.869 21.0347 180.711 20.1167 180.393 19.278C180.076 18.4393 179.623 17.714 179.033 17.102C178.467 16.4673 177.798 15.98 177.027 15.64C176.257 15.3 175.407 15.13 174.477 15.13C173.548 15.13 172.687 15.3 171.893 15.64C171.123 15.98 170.443 16.4673 169.853 17.102C169.287 17.714 168.845 18.4393 168.527 19.278C168.21 20.1167 168.051 21.0347 168.051 22.032C168.051 23.3467 168.323 24.5253 168.867 25.568C169.434 26.588 170.193 27.3927 171.145 27.982C172.12 28.5713 173.231 28.866 174.477 28.866Z" fill="black"/>
</g>
<defs>
<linearGradient id="paint0_linear_13_32" x1="24.5" y1="2.45455" x2="24.5" y2="50.4545" gradientUnits="userSpaceOnUse">
<stop stop-color="#FFD1BC"/>
<stop offset="1" stop-color="#FF5303"/>
</linearGradient>
<linearGradient id="paint1_linear_13_32" x1="25.5" y1="24" x2="25.5" y2="29" gradientUnits="userSpaceOnUse">
<stop stop-color="#6B788D"/>
<stop offset="1" stop-color="#2F80FA"/>
</linearGradient>
<linearGradient id="paint2_linear_13_32" x1="36" y1="0" x2="36" y2="8" gradientUnits="userSpaceOnUse">
<stop stop-color="#6B788D"/>
<stop offset="1" stop-color="#2F80FA"/>
</linearGradient>
<linearGradient id="paint3_linear_13_32" x1="14" y1="3" x2="14" y2="11" gradientUnits="userSpaceOnUse">
<stop stop-color="#6B788D"/>
<stop offset="1" stop-color="#2F80FA"/>
</linearGradient>
<clipPath id="clip0_13_32">
<rect width="188" height="50" fill="white"/>
</clipPath>
<clipPath id="clip1_13_32">
<rect width="50" height="50" fill="white"/>
</clipPath>
</defs>
</svg>
